<?xml version="1.0" encoding="UTF-8"?>
<svg xmlns="http://www.w3.org/2000/svg" xmlns:xlink="http://www.w3.org/1999/xlink" viewBox="0 0 48 48" width="48px" height="48px">
<g id="surface28933293">
<path style=" stroke:none;fill-rule:nonzero;fill:rgb(23.921569%,41.176471%,88.235295%);fill-opacity:1;" d="M 44 24 C 44 35.046875 35.046875 44 24 44 C 12.953125 44 4 35.046875 4 24 C 4 12.953125 12.953125 4 24 4 C 35.046875 4 44 12.953125 44 24 Z M 44 24 "/>
<path style=" stroke:none;fill-rule:nonzero;fill:rgb(100%,100%,100%);fill-opacity:1;" d="M 22 22 L 26 22 L 26 33 L 22 33 Z M 26.5 16.5 C 26.5 17.878906 25.378906 19 24 19 C 22.621094 19 21.5 17.878906 21.5 16.5 C 21.5 15.121094 22.621094 14 24 14 C 25.378906 14 26.5 15.121094 26.5 16.5 Z M 26.5 16.5 "/>
</g>
</svg>
